<?xml version="1.0" standalone="no"?>
<!DOCTYPE svg PUBLIC "-//W3C//DTD SVG 20010904//EN"
 "http://www.w3.org/TR/2001/REC-SVG-20010904/DTD/svg10.dtd">
<svg version="1.0" xmlns="http://www.w3.org/2000/svg"
 width="700.000000pt" height="700.000000pt" viewBox="0 0 700.000000 700.000000"
 preserveAspectRatio="xMidYMid meet">
<metadata>
Created by potrace 1.14, written by Peter Selinger 2001-2017
</metadata>
<g transform="translate(0.000000,700.000000) scale(0.100000,-0.100000)"
fill="#000000" stroke="none">
<path d="M1255 6993 c-138 -12 -350 -75 -485 -143 -386 -196 -644 -533 -742
-971 l-23 -104 0 -2275 0 -2275 23 -104 c128 -568 527 -968 1095 -1093 l102
-23 2275 0 2275 0 102 23 c566 125 970 529 1095 1095 l23 102 0 2275 0 2275
-23 102 c-97 438 -360 782 -747 975 -93 47 -197 84 -325 116 l-105 27 -2250 1
c-1237 0 -2268 -1 -2290 -3z m1612 -2843 c307 -467 561 -850 565 -850 5 0 262
381 573 847 l565 848 0 -500 0 -501 -567 -857 c-459 -696 -569 -856 -579 -845
-7 7 -389 586 -848 1286 l-836 1272 0 69 c0 37 3 71 7 74 3 4 131 7 284 7
l277 0 559 -850z m2391 718 l3 -128 -286 0 -285 0 0 130 0 130 283 -2 282 -3
3 -127z m-3228 -708 l280 -420 0 -870 0 -870 -282 2 -283 3 -3 1288 c-1 708 0
1287 3 1287 3 0 131 -189 285 -420z m3230 260 l0 -130 -285 0 -285 0 0 130 0
130 285 0 285 0 0 -130z m0 -465 l0 -125 -285 0 -285 0 0 125 0 125 285 0 285
0 0 -125z m0 -450 l0 -125 -285 0 -285 0 0 125 0 125 285 0 285 0 0 -125z m0
-460 l0 -125 -285 0 -285 0 0 125 0 125 285 0 285 0 0 -125z m0 -450 l0 -125
-285 0 -285 0 0 125 0 125 285 0 285 0 0 -125z m-2 -462 l-3 -128 -282 -3
-283 -2 0 130 0 130 285 0 286 0 -3 -127z"/>
</g>
</svg>
