<svg xmlns="http://www.w3.org/2000/svg" width="20" height="20" fill="currentColor">
  <path fill="#fff" d="M0 1.453v.855l9.658 14.7 6.496-9.828V1.453l-6.496 9.744-6.41-9.744H0ZM0 3.762v14.786h3.248V8.634L0 3.762ZM20.086 1.453h-3.248v1.453h3.248V1.453ZM20.086 4.016h-3.248v1.453h3.248V4.016ZM20.086 6.668h-3.248v1.453h3.248V6.668ZM20.086 9.23h-3.248v1.454h3.248V9.23ZM20.086 11.879h-3.248v1.453h3.248v-1.453ZM20.086 14.445h-3.248v1.453h3.248v-1.453ZM20.086 17.094h-3.248v1.453h3.248v-1.453Z"/>
</svg>
